<?xml version="1.0" encoding="UTF-8"?>
<!DOCTYPE svg PUBLIC "-//W3C//DTD SVG 1.1//EN" "http://www.w3.org/Graphics/SVG/1.1/DTD/svg11.dtd">
<svg xmlns="http://www.w3.org/2000/svg" style="background: transparent; background-color: transparent; color-scheme: light;" xmlns:xlink="http://www.w3.org/1999/xlink" version="1.1" width="1181px" height="861px" viewBox="0 0 1181 861"><defs/><g><g data-cell-id="0"><g data-cell-id="1"><g data-cell-id="p5-1"><g><rect x="0" y="0" width="1180" height="860" fill="#ffffff" stroke="none" pointer-events="all" style="fill: rgb(255, 255, 255);"/></g></g><g data-cell-id="p5-2"><g><rect x="40" y="20" width="1000" height="34" fill="none" stroke="none" pointer-events="all"/></g><g><g fill="#1a1a1a" font-family="Helvetica" font-weight="bold" text-anchor="start" font-size="20px" style="fill: rgb(26, 26, 26);"><text x="42" y="46">Failure flow: fail closed</text></g></g></g><g data-cell-id="p5-3"><g><rect x="40" y="54" width="1000" height="24" fill="none" stroke="none" pointer-events="all"/></g><g><g fill="#555555" font-family="Helvetica" text-anchor="start" font-size="13px" style="fill: rgb(85, 85, 85);"><text x="42" y="71.5">With the AI filter on, anything short of a valid assessment that passes the gate means no trade, and the log says why.</text></g></g></g><g data-cell-id="p5-4"><g transform="translate(0.5,0.5)"><path d="M 135 120 L 210 165 L 135 210 L 60 165 Z" fill="#fff2cc" stroke="#d6b656" stroke-miterlimit="10" pointer-events="all" style="fill: rgb(255, 242, 204); stroke: rgb(214, 182, 86);"/></g><g><g fill="#1a1a1a" font-family="Helvetica" text-anchor="middle" font-size="12px" style="fill: rgb(26, 26, 26);"><text x="135" y="163">AI filter</text><text x="135" y="177">enabled?</text></g></g></g><g data-cell-id="p5-5"><g transform="translate(0.5,0.5)"><rect x="300" y="135" width="380" height="60" rx="7.2" ry="7.2" fill="#d5e8d4" stroke="#82b366" pointer-events="all" style="fill: rgb(213, 232, 212); stroke: rgb(130, 179, 102);"/></g><g><g fill="#1a1a1a" font-family="Helvetica" text-anchor="middle" font-size="12px" style="fill: rgb(26, 26, 26);"><text x="490" y="156">Legacy behaviour, unchanged</text><text x="490" y="170">marker  -&gt;  OrderExecutor.TryEnter  -&gt;  order</text><text x="490" y="184">no network, no AI code runs</text></g></g></g><g data-cell-id="p5-6"><g><path d="M 210 165 L 290.82 165" fill="none" stroke="#333333" stroke-width="1.5" stroke-miterlimit="10" pointer-events="stroke" style="stroke: rgb(51, 51, 51);"/><path d="M 298.32 165 L 290.82 168.75 L 290.82 161.25 Z" fill="#333333" stroke="#333333" stroke-width="1.5" stroke-miterlimit="10" pointer-events="all" style="fill: rgb(51, 51, 51); stroke: rgb(51, 51, 51);"/></g><g><g fill="#1a1a1a" font-family="Helvetica" text-anchor="middle" font-size="11px" style="fill: rgb(26, 26, 26);"><rect fill="#ffffff" stroke="none" x="227" y="159" width="58" height="14" stroke-width="0" style="fill: rgb(255, 255, 255);"/><text x="255" y="169.5">no (default)</text></g></g></g><g data-cell-id="p5-7"><g transform="translate(0.5,0.5)"><path d="M 135 250 L 210 295 L 135 340 L 60 295 Z" fill="#fff2cc" stroke="#d6b656" stroke-miterlimit="10" pointer-events="all" style="fill: rgb(255, 242, 204); stroke: rgb(214, 182, 86);"/></g><g><g fill="#1a1a1a" font-family="Helvetica" text-anchor="middle" font-size="12px" style="fill: rgb(26, 26, 26);"><text x="135" y="300">live or demo?</text></g></g></g><g data-cell-id="p5-8"><g transform="translate(0.5,0.5)"><rect x="300" y="265" width="380" height="60" rx="7.2" ry="7.2" fill="#f8cecc" stroke="#b85450" pointer-events="all" style="fill: rgb(248, 206, 204); stroke: rgb(184, 84, 80);"/></g><g><g fill="#1a1a1a" font-family="Helvetica" text-anchor="middle" font-size="12px" style="fill: rgb(26, 26, 26);"><text x="490" y="293">StartupCheck stops the cBot at start-up</text><text x="490" y="307">(visual backtest, non-visual backtest, optimization)</text></g></g></g><g data-cell-id="p5-9"><g><path d="M 135 210 L 135 240.82" fill="none" stroke="#333333" stroke-width="1.5" stroke-miterlimit="10" pointer-events="stroke" style="stroke: rgb(51, 51, 51);"/><path d="M 135 248.32 L 131.25 240.82 L 138.75 240.82 Z" fill="#333333" stroke="#333333" stroke-width="1.5" stroke-miterlimit="10" pointer-events="all" style="fill: rgb(51, 51, 51); stroke: rgb(51, 51, 51);"/></g><g><g fill="#1a1a1a" font-family="Helvetica" text-anchor="middle" font-size="11px" style="fill: rgb(26, 26, 26);"><rect fill="#ffffff" stroke="none" x="126" y="224" width="19" height="14" stroke-width="0" style="fill: rgb(255, 255, 255);"/><text x="135" y="234.5">yes</text></g></g></g><g data-cell-id="p5-10"><g><path d="M 210 295 L 290.82 295" fill="none" stroke="#333333" stroke-width="1.5" stroke-miterlimit="10" pointer-events="stroke" style="stroke: rgb(51, 51, 51);"/><path d="M 298.32 295 L 290.82 298.75 L 290.82 291.25 Z" fill="#333333" stroke="#333333" stroke-width="1.5" stroke-miterlimit="10" pointer-events="all" style="fill: rgb(51, 51, 51); stroke: rgb(51, 51, 51);"/></g><g><g fill="#1a1a1a" font-family="Helvetica" text-anchor="middle" font-size="11px" style="fill: rgb(26, 26, 26);"><rect fill="#ffffff" stroke="none" x="249" y="289" width="14" height="14" stroke-width="0" style="fill: rgb(255, 255, 255);"/><text x="255" y="299.5">no</text></g></g></g><g data-cell-id="p5-11"><g transform="translate(0.5,0.5)"><rect x="960" y="520" width="170" height="100" rx="12" ry="12" fill="#f8cecc" stroke="#b85450" pointer-events="all" style="fill: rgb(248, 206, 204); stroke: rgb(184, 84, 80);"/></g><g><g fill="#1a1a1a" font-family="Helvetica" font-weight="bold" text-anchor="middle" font-size="14px" style="fill: rgb(26, 26, 26);"><text x="1045" y="559">NO TRADE</text><text x="1045" y="576">+</text><text x="1045" y="593">clear log line</text></g></g></g><g data-cell-id="p5-12"><g transform="translate(0.5,0.5)"><rect x="60" y="545" width="150" height="56" rx="6.72" ry="6.72" fill="#dae8fc" stroke="#6c8ebf" pointer-events="all" style="fill: rgb(218, 232, 252); stroke: rgb(108, 142, 191);"/></g><g><g fill="#1a1a1a" font-family="Helvetica" text-anchor="middle" font-size="12px" style="fill: rgb(26, 26, 26);"><text x="135" y="571">signal detected</text><text x="135" y="585">(live / demo)</text></g></g></g><g data-cell-id="p5-13"><g><path d="M 135 340 L 135 535.82" fill="none" stroke="#333333" stroke-width="1.5" stroke-miterlimit="10" pointer-events="stroke" style="stroke: rgb(51, 51, 51);"/><path d="M 135 543.32 L 131.25 535.82 L 138.75 535.82 Z" fill="#333333" stroke="#333333" stroke-width="1.5" stroke-miterlimit="10" pointer-events="all" style="fill: rgb(51, 51, 51); stroke: rgb(51, 51, 51);"/></g><g><g fill="#1a1a1a" font-family="Helvetica" text-anchor="middle" font-size="11px" style="fill: rgb(26, 26, 26);"><rect fill="#ffffff" stroke="none" x="126" y="437" width="19" height="14" stroke-width="0" style="fill: rgb(255, 255, 255);"/><text x="135" y="447.5">yes</text></g></g></g><g data-cell-id="p5-14"><g transform="translate(0.5,0.5)"><rect x="300" y="380" width="540" height="36" rx="4.32" ry="4.32" fill="#fff2cc" stroke="#d6b656" pointer-events="all" style="fill: rgb(255, 242, 204); stroke: rgb(214, 182, 86);"/></g><g><g fill="#1a1a1a" font-family="Helvetica" text-anchor="start" font-size="12px" style="fill: rgb(26, 26, 26);"><text x="312" y="403">Chart.TakeChartshot() returns null  (chart not visible)</text></g></g></g><g data-cell-id="p5-15"><g><path d="M 210 573 L 245 573 Q 255 573 255 563 L 255 408 Q 255 398 265 398 L 290.82 398" fill="none" stroke="#333333" stroke-width="1.5" stroke-miterlimit="10" pointer-events="stroke" style="stroke: rgb(51, 51, 51);"/><path d="M 298.32 398 L 290.82 401.75 L 290.82 394.25 Z" fill="#333333" stroke="#333333" stroke-width="1.5" stroke-miterlimit="10" pointer-events="all" style="fill: rgb(51, 51, 51); stroke: rgb(51, 51, 51);"/></g></g><g data-cell-id="p5-16"><g><path d="M 840 398 L 890 398 Q 900 398 900 408 L 900 560 Q 900 570 910 570 L 950.82 570" fill="none" stroke="#333333" stroke-width="1.5" stroke-miterlimit="10" pointer-events="stroke" style="stroke: rgb(51, 51, 51);"/><path d="M 958.32 570 L 950.82 573.75 L 950.82 566.25 Z" fill="#333333" stroke="#333333" stroke-width="1.5" stroke-miterlimit="10" pointer-events="all" style="fill: rgb(51, 51, 51); stroke: rgb(51, 51, 51);"/></g></g><g data-cell-id="p5-17"><g transform="translate(0.5,0.5)"><rect x="300" y="426" width="540" height="36" rx="4.32" ry="4.32" fill="#fff2cc" stroke="#d6b656" pointer-events="all" style="fill: rgb(255, 242, 204); stroke: rgb(214, 182, 86);"/></g><g><g fill="#1a1a1a" font-family="Helvetica" text-anchor="start" font-size="12px" style="fill: rgb(26, 26, 26);"><text x="312" y="449">AI service unavailable  (not running, connection refused)</text></g></g></g><g data-cell-id="p5-18"><g><path d="M 210 573 L 245 573 Q 255 573 255 563 L 255 454 Q 255 444 265 444 L 290.82 444" fill="none" stroke="#333333" stroke-width="1.5" stroke-miterlimit="10" pointer-events="stroke" style="stroke: rgb(51, 51, 51);"/><path d="M 298.32 444 L 290.82 447.75 L 290.82 440.25 Z" fill="#333333" stroke="#333333" stroke-width="1.5" stroke-miterlimit="10" pointer-events="all" style="fill: rgb(51, 51, 51); stroke: rgb(51, 51, 51);"/></g></g><g data-cell-id="p5-19"><g><path d="M 840 444 L 890 444 Q 900 444 900 454 L 900 560 Q 900 570 910 570 L 950.82 570" fill="none" stroke="#333333" stroke-width="1.5" stroke-miterlimit="10" pointer-events="stroke" style="stroke: rgb(51, 51, 51);"/><path d="M 958.32 570 L 950.82 573.75 L 950.82 566.25 Z" fill="#333333" stroke="#333333" stroke-width="1.5" stroke-miterlimit="10" pointer-events="all" style="fill: rgb(51, 51, 51); stroke: rgb(51, 51, 51);"/></g></g><g data-cell-id="p5-20"><g transform="translate(0.5,0.5)"><rect x="300" y="472" width="540" height="36" rx="4.32" ry="4.32" fill="#fff2cc" stroke="#d6b656" pointer-events="all" style="fill: rgb(255, 242, 204); stroke: rgb(214, 182, 86);"/></g><g><g fill="#1a1a1a" font-family="Helvetica" text-anchor="start" font-size="12px" style="fill: rgb(26, 26, 26);"><text x="312" y="495">HTTP timeout  (no answer within AI超时秒数)</text></g></g></g><g data-cell-id="p5-21"><g><path d="M 210 573 L 245 573 Q 255 573 255 563 L 255 500 Q 255 490 265 490 L 290.82 490" fill="none" stroke="#333333" stroke-width="1.5" stroke-miterlimit="10" pointer-events="stroke" style="stroke: rgb(51, 51, 51);"/><path d="M 298.32 490 L 290.82 493.75 L 290.82 486.25 Z" fill="#333333" stroke="#333333" stroke-width="1.5" stroke-miterlimit="10" pointer-events="all" style="fill: rgb(51, 51, 51); stroke: rgb(51, 51, 51);"/></g></g><g data-cell-id="p5-22"><g><path d="M 840 490 L 890 490 Q 900 490 900 500 L 900 560 Q 900 570 910 570 L 950.82 570" fill="none" stroke="#333333" stroke-width="1.5" stroke-miterlimit="10" pointer-events="stroke" style="stroke: rgb(51, 51, 51);"/><path d="M 958.32 570 L 950.82 573.75 L 950.82 566.25 Z" fill="#333333" stroke="#333333" stroke-width="1.5" stroke-miterlimit="10" pointer-events="all" style="fill: rgb(51, 51, 51); stroke: rgb(51, 51, 51);"/></g></g><g data-cell-id="p5-23"><g transform="translate(0.5,0.5)"><rect x="300" y="518" width="540" height="36" rx="4.32" ry="4.32" fill="#fff2cc" stroke="#d6b656" pointer-events="all" style="fill: rgb(255, 242, 204); stroke: rgb(214, 182, 86);"/></g><g><g fill="#1a1a1a" font-family="Helvetica" text-anchor="start" font-size="12px" style="fill: rgb(26, 26, 26);"><text x="312" y="541">TrendAssessmentModel returns an error  (400 / 500 / 502 / 504)</text></g></g></g><g data-cell-id="p5-24"><g><path d="M 210 573 L 245 573 Q 255 573 255 563 L 255 546 Q 255 536 265 536 L 290.82 536" fill="none" stroke="#333333" stroke-width="1.5" stroke-miterlimit="10" pointer-events="stroke" style="stroke: rgb(51, 51, 51);"/><path d="M 298.32 536 L 290.82 539.75 L 290.82 532.25 Z" fill="#333333" stroke="#333333" stroke-width="1.5" stroke-miterlimit="10" pointer-events="all" style="fill: rgb(51, 51, 51); stroke: rgb(51, 51, 51);"/></g></g><g data-cell-id="p5-25"><g><path d="M 840 536 L 890 536 Q 900 536 900 546 L 900 560 Q 900 570 910 570 L 950.82 570" fill="none" stroke="#333333" stroke-width="1.5" stroke-miterlimit="10" pointer-events="stroke" style="stroke: rgb(51, 51, 51);"/><path d="M 958.32 570 L 950.82 573.75 L 950.82 566.25 Z" fill="#333333" stroke="#333333" stroke-width="1.5" stroke-miterlimit="10" pointer-events="all" style="fill: rgb(51, 51, 51); stroke: rgb(51, 51, 51);"/></g></g><g data-cell-id="p5-26"><g transform="translate(0.5,0.5)"><rect x="300" y="564" width="540" height="36" rx="4.32" ry="4.32" fill="#fff2cc" stroke="#d6b656" pointer-events="all" style="fill: rgb(255, 242, 204); stroke: rgb(214, 182, 86);"/></g><g><g fill="#1a1a1a" font-family="Helvetica" text-anchor="start" font-size="12px" style="fill: rgb(26, 26, 26);"><text x="312" y="587">Ollama or gemma3:27b unavailable  (502 model_unavailable, 504 model_timeout)</text></g></g></g><g data-cell-id="p5-27"><g><path d="M 210 573 L 245 573 Q 255 573 255 577.5 L 255 579.75 Q 255 582 265 582 L 290.82 582" fill="none" stroke="#333333" stroke-width="1.5" stroke-miterlimit="10" pointer-events="stroke" style="stroke: rgb(51, 51, 51);"/><path d="M 298.32 582 L 290.82 585.75 L 290.82 578.25 Z" fill="#333333" stroke="#333333" stroke-width="1.5" stroke-miterlimit="10" pointer-events="all" style="fill: rgb(51, 51, 51); stroke: rgb(51, 51, 51);"/></g></g><g data-cell-id="p5-28"><g><path d="M 840 582 L 890 582 Q 900 582 900 576 L 900 573 Q 900 570 910 570 L 950.82 570" fill="none" stroke="#333333" stroke-width="1.5" stroke-miterlimit="10" pointer-events="stroke" style="stroke: rgb(51, 51, 51);"/><path d="M 958.32 570 L 950.82 573.75 L 950.82 566.25 Z" fill="#333333" stroke="#333333" stroke-width="1.5" stroke-miterlimit="10" pointer-events="all" style="fill: rgb(51, 51, 51); stroke: rgb(51, 51, 51);"/></g></g><g data-cell-id="p5-29"><g transform="translate(0.5,0.5)"><rect x="300" y="610" width="540" height="36" rx="4.32" ry="4.32" fill="#fff2cc" stroke="#d6b656" pointer-events="all" style="fill: rgb(255, 242, 204); stroke: rgb(214, 182, 86);"/></g><g><g fill="#1a1a1a" font-family="Helvetica" text-anchor="start" font-size="12px" style="fill: rgb(26, 26, 26);"><text x="312" y="633">status UNREADABLE  (no usable chart in the picture)</text></g></g></g><g data-cell-id="p5-30"><g><path d="M 210 573 L 245 573 Q 255 573 255 583 L 255 618 Q 255 628 265 628 L 290.82 628" fill="none" stroke="#333333" stroke-width="1.5" stroke-miterlimit="10" pointer-events="stroke" style="stroke: rgb(51, 51, 51);"/><path d="M 298.32 628 L 290.82 631.75 L 290.82 624.25 Z" fill="#333333" stroke="#333333" stroke-width="1.5" stroke-miterlimit="10" pointer-events="all" style="fill: rgb(51, 51, 51); stroke: rgb(51, 51, 51);"/></g></g><g data-cell-id="p5-31"><g><path d="M 840 628 L 890 628 Q 900 628 900 618 L 900 580 Q 900 570 910 570 L 950.82 570" fill="none" stroke="#333333" stroke-width="1.5" stroke-miterlimit="10" pointer-events="stroke" style="stroke: rgb(51, 51, 51);"/><path d="M 958.32 570 L 950.82 573.75 L 950.82 566.25 Z" fill="#333333" stroke="#333333" stroke-width="1.5" stroke-miterlimit="10" pointer-events="all" style="fill: rgb(51, 51, 51); stroke: rgb(51, 51, 51);"/></g></g><g data-cell-id="p5-32"><g transform="translate(0.5,0.5)"><rect x="300" y="656" width="540" height="36" rx="4.32" ry="4.32" fill="#fff2cc" stroke="#d6b656" pointer-events="all" style="fill: rgb(255, 242, 204); stroke: rgb(214, 182, 86);"/></g><g><g fill="#1a1a1a" font-family="Helvetica" text-anchor="start" font-size="12px" style="fill: rgb(26, 26, 26);"><text x="312" y="679">malformed or out-of-contract response</text></g></g></g><g data-cell-id="p5-33"><g><path d="M 210 573 L 245 573 Q 255 573 255 583 L 255 664 Q 255 674 265 674 L 290.82 674" fill="none" stroke="#333333" stroke-width="1.5" stroke-miterlimit="10" pointer-events="stroke" style="stroke: rgb(51, 51, 51);"/><path d="M 298.32 674 L 290.82 677.75 L 290.82 670.25 Z" fill="#333333" stroke="#333333" stroke-width="1.5" stroke-miterlimit="10" pointer-events="all" style="fill: rgb(51, 51, 51); stroke: rgb(51, 51, 51);"/></g></g><g data-cell-id="p5-34"><g><path d="M 840 674 L 890 674 Q 900 674 900 664 L 900 580 Q 900 570 910 570 L 950.82 570" fill="none" stroke="#333333" stroke-width="1.5" stroke-miterlimit="10" pointer-events="stroke" style="stroke: rgb(51, 51, 51);"/><path d="M 958.32 570 L 950.82 573.75 L 950.82 566.25 Z" fill="#333333" stroke="#333333" stroke-width="1.5" stroke-miterlimit="10" pointer-events="all" style="fill: rgb(51, 51, 51); stroke: rgb(51, 51, 51);"/></g></g><g data-cell-id="p5-35"><g transform="translate(0.5,0.5)"><rect x="300" y="702" width="540" height="36" rx="4.32" ry="4.32" fill="#fff2cc" stroke="#d6b656" pointer-events="all" style="fill: rgb(255, 242, 204); stroke: rgb(214, 182, 86);"/></g><g><g fill="#1a1a1a" font-family="Helvetica" text-anchor="start" font-size="12px" style="fill: rgb(26, 26, 26);"><text x="312" y="725">stale signal  (a newer bar closed before the answer)</text></g></g></g><g data-cell-id="p5-36"><g><path d="M 210 573 L 245 573 Q 255 573 255 583 L 255 710 Q 255 720 265 720 L 290.82 720" fill="none" stroke="#333333" stroke-width="1.5" stroke-miterlimit="10" pointer-events="stroke" style="stroke: rgb(51, 51, 51);"/><path d="M 298.32 720 L 290.82 723.75 L 290.82 716.25 Z" fill="#333333" stroke="#333333" stroke-width="1.5" stroke-miterlimit="10" pointer-events="all" style="fill: rgb(51, 51, 51); stroke: rgb(51, 51, 51);"/></g></g><g data-cell-id="p5-37"><g><path d="M 840 720 L 890 720 Q 900 720 900 710 L 900 580 Q 900 570 910 570 L 950.82 570" fill="none" stroke="#333333" stroke-width="1.5" stroke-miterlimit="10" pointer-events="stroke" style="stroke: rgb(51, 51, 51);"/><path d="M 958.32 570 L 950.82 573.75 L 950.82 566.25 Z" fill="#333333" stroke="#333333" stroke-width="1.5" stroke-miterlimit="10" pointer-events="all" style="fill: rgb(51, 51, 51); stroke: rgb(51, 51, 51);"/></g></g><g data-cell-id="p5-38"><g transform="translate(0.5,0.5)"><rect x="300" y="748" width="540" height="36" rx="4.32" ry="4.32" fill="#fff2cc" stroke="#d6b656" pointer-events="all" style="fill: rgb(255, 242, 204); stroke: rgb(214, 182, 86);"/></g><g><g fill="#1a1a1a" font-family="Helvetica" text-anchor="start" font-size="12px" style="fill: rgb(26, 26, 26);"><text x="312" y="771">TrendDirectionGate rejects  (SIDEWAYS, opposite trend, FLAT daily VWAP)</text></g></g></g><g data-cell-id="p5-39"><g><path d="M 210 573 L 245 573 Q 255 573 255 583 L 255 756 Q 255 766 265 766 L 290.82 766" fill="none" stroke="#333333" stroke-width="1.5" stroke-miterlimit="10" pointer-events="stroke" style="stroke: rgb(51, 51, 51);"/><path d="M 298.32 766 L 290.82 769.75 L 290.82 762.25 Z" fill="#333333" stroke="#333333" stroke-width="1.5" stroke-miterlimit="10" pointer-events="all" style="fill: rgb(51, 51, 51); stroke: rgb(51, 51, 51);"/></g></g><g data-cell-id="p5-40"><g><path d="M 840 766 L 890 766 Q 900 766 900 756 L 900 580 Q 900 570 910 570 L 950.82 570" fill="none" stroke="#333333" stroke-width="1.5" stroke-miterlimit="10" pointer-events="stroke" style="stroke: rgb(51, 51, 51);"/><path d="M 958.32 570 L 950.82 573.75 L 950.82 566.25 Z" fill="#333333" stroke="#333333" stroke-width="1.5" stroke-miterlimit="10" pointer-events="all" style="fill: rgb(51, 51, 51); stroke: rgb(51, 51, 51);"/></g></g><g data-cell-id="p5-41"><g transform="translate(0.5,0.5)"><rect x="300" y="800" width="540" height="46" rx="5.52" ry="5.52" fill="#d5e8d4" stroke="#82b366" pointer-events="all" style="fill: rgb(213, 232, 212); stroke: rgb(130, 179, 102);"/></g><g><g fill="#1a1a1a" font-family="Helvetica" text-anchor="middle" font-size="12px" style="fill: rgb(26, 26, 26);"><text x="570" y="821">valid assessment AND TrendDirectionGate PASS</text><text x="570" y="835">-&gt;  OrderExecutor.TryEnter (its own gates still apply)</text></g></g></g><g data-cell-id="p5-42"><g><path d="M 135 601 L 135 813 Q 135 823 145 823 L 290.82 823" fill="none" stroke="#333333" stroke-width="1.5" stroke-miterlimit="10" pointer-events="stroke" style="stroke: rgb(51, 51, 51);"/><path d="M 298.32 823 L 290.82 826.75 L 290.82 819.25 Z" fill="#333333" stroke="#333333" stroke-width="1.5" stroke-miterlimit="10" pointer-events="all" style="fill: rgb(51, 51, 51); stroke: rgb(51, 51, 51);"/></g></g></g></g></g></svg>